<?xml version="1.0" encoding="UTF-8"?> <!-- Creator: CorelDRAW X7 --> <svg xmlns="http://www.w3.org/2000/svg" xmlns:xlink="http://www.w3.org/1999/xlink" xml:space="preserve" width="80px" height="80px" style="shape-rendering:geometricPrecision; text-rendering:geometricPrecision; image-rendering:optimizeQuality; fill-rule:evenodd; clip-rule:evenodd" viewBox="0 0 8000 8000"> <defs> <style type="text/css"> <![CDATA[ .fil0 {fill:gray;fill-rule:nonzero} ]]> </style> </defs> <g id="Слой_x0020_1"> <metadata id="CorelCorpID_0Corel-Layer"></metadata> <path class="fil0" d="M2410 7981c21,12 47,19 73,19l1 0c73,-1 131,-50 130,-110 -1,-15 -5,-31 -13,-46 -802,-2218 389,-3288 898,-3627 -43,1432 888,2507 933,2554 33,36 90,52 143,39 270,-67 683,-289 937,-433 -70,574 -362,1473 -365,1483 -19,57 22,117 92,133 39,8 81,1 113,-19 57,-36 1396,-905 1827,-2367 436,-1473 -785,-2911 -833,-2971 -42,-49 -124,-61 -182,-26 -39,23 -60,60 -56,99 49,729 -157,1455 -593,2091 80,-387 121,-956 42,-1785 -201,-2090 -2492,-2996 -2515,-3005 -17,-6 -35,-10 -53,-10l-5 0c-48,1 -94,24 -116,63 -10,18 -14,39 -11,59 133,858 -109,1237 -755,2250 -262,409 -585,918 -973,1597 -1384,2426 1254,3996 1281,4012zm-1047 -3919c386,-675 709,-1182 968,-1589 605,-948 883,-1384 810,-2172 551,272 1999,1134 2149,2729 135,1428 -87,2040 -230,2278 -21,37 -47,72 -79,103 -51,43 -50,112 2,154 50,40 128,41 179,3 739,-682 1166,-1556 1208,-2472 327,499 839,1487 551,2464 -283,962 -1001,1667 -1418,2011 116,-398 285,-1038 285,-1408 0,-60 -59,-109 -131,-109 -28,0 -55,8 -78,22 -7,4 -611,374 -993,501 -208,-265 -939,-1306 -811,-2568 6,-59 -47,-112 -119,-117 -27,-2 -53,3 -77,14 -19,10 -2112,1033 -1327,3684 -632,-484 -1906,-1744 -887,-3528l-2 0z"></path> </g> </svg> 