<?xml version="1.0" encoding="UTF-8"?> <!-- Creator: CorelDRAW X7 --> <svg xmlns="http://www.w3.org/2000/svg" xmlns:xlink="http://www.w3.org/1999/xlink" xml:space="preserve" width="80px" height="80px" style="shape-rendering:geometricPrecision; text-rendering:geometricPrecision; image-rendering:optimizeQuality; fill-rule:evenodd; clip-rule:evenodd" viewBox="0 0 8000 8000"> <defs> <style type="text/css"> <![CDATA[ .fil0 {fill:gray} ]]> </style> </defs> <g id="Слой_x0020_1"> <metadata id="CorelCorpID_0Corel-Layer"></metadata> <g id="_989408512"> <path class="fil0" d="M3809 5954c-33,0 -66,-13 -92,-38 -53,-50 -55,-134 -4,-188 408,-426 917,-470 1456,-517 607,-53 1234,-109 1835,-710 968,-967 968,-2542 0,-3509 -968,-968 -2542,-968 -3509,0 -600,599 -644,1223 -687,1826 -38,545 -74,1059 -502,1497 -51,53 -135,54 -188,3 -53,-52 -54,-136 -2,-189 359,-368 390,-814 427,-1330 44,-621 93,-1326 763,-1996 1072,-1071 2815,-1071 3887,0 1071,1072 1071,2815 0,3887 -670,670 -1377,731 -2001,786 -508,44 -947,83 -1287,437 -26,27 -61,41 -96,41z"></path> <path class="fil0" d="M1832 7919c-190,0 -379,-72 -524,-216l-1006 -1007c-289,-288 -289,-758 0,-1047l1345 -1345c151,-151 360,-229 573,-215 73,5 129,68 124,142 -5,73 -69,129 -142,123 -136,-8 -270,41 -367,138l-1345 1346c-185,184 -185,485 0,670l1007 1006c185,185 485,185 670,0l1345 -1345c131,-131 184,-257 159,-384 -26,-13 -86,-29 -136,-41 -259,-65 -692,-174 -1110,-768 -42,-60 -28,-143 33,-185 60,-43 143,-28 185,32 361,513 720,603 957,662 149,38 291,74 327,224 54,226 -23,444 -227,649l-1345 1345c-144,144 -334,216 -523,216z"></path> <path class="fil0" d="M899 8000c-229,0 -459,-87 -633,-262 -350,-349 -350,-917 0,-1266 52,-52 136,-52 188,0 53,52 53,136 0,188 -245,245 -245,645 0,890 245,246 645,246 890,0 52,-52 136,-52 189,0 51,52 51,136 0,188 -175,175 -405,262 -634,262z"></path> <path class="fil0" d="M3959 1617c-34,0 -68,-12 -95,-39 -52,-52 -52,-136 0,-188 759,-758 1992,-758 2750,0 53,52 53,136 0,188 -51,52 -136,52 -188,0 -317,-317 -738,-491 -1187,-491 -448,0 -869,174 -1187,491 -25,27 -59,39 -93,39z"></path> </g> </g> </svg> 