<?xml version="1.0" encoding="UTF-8"?> <!-- Creator: CorelDRAW X7 --> <svg xmlns="http://www.w3.org/2000/svg" xmlns:xlink="http://www.w3.org/1999/xlink" xml:space="preserve" width="80px" height="80px" style="shape-rendering:geometricPrecision; text-rendering:geometricPrecision; image-rendering:optimizeQuality; fill-rule:evenodd; clip-rule:evenodd" viewBox="0 0 8000 8000"> <defs> <style type="text/css"> <![CDATA[ .fil0 {fill:gray} ]]> </style> </defs> <g id="Слой_x0020_1"> <metadata id="CorelCorpID_0Corel-Layer"></metadata> <g id="_986030304"> <path class="fil0" d="M1391 982c-223,2 -404,166 -404,369l0 2730c0,2261 2637,3509 3013,3675 376,-166 3014,-1417 3014,-3675l0 -2730c0,-203 -182,-367 -405,-369 -15,1 -66,4 -145,4 -413,0 -1468,-72 -2464,-729 -996,657 -2051,729 -2464,729 -79,0 -129,-3 -145,-4zm2609 7018c-15,0 -30,-3 -44,-9 -33,-13 -808,-332 -1595,-970 -1052,-853 -1608,-1870 -1608,-2940l0 -2730c0,-332 288,-603 642,-603 3,0 5,0 8,1 1,0 49,3 133,3 401,0 1437,-71 2398,-731 40,-28 92,-28 132,0 961,660 1997,731 2398,731 84,0 132,-3 133,-3 3,-1 6,-1 8,-1 354,0 642,271 642,603l0 2730c0,1070 -556,2087 -1608,2940 -787,638 -1562,957 -1595,970 -14,6 -29,9 -44,9z"></path> <path class="fil0" d="M4000 7114c-18,0 -37,-4 -54,-13 -719,-372 -2393,-1412 -2393,-3020l0 -1711c0,-65 53,-117 117,-117 65,0 117,52 117,117l0 1711c0,1442 1506,2410 2213,2785 707,-375 2213,-1343 2213,-2785l0 -2302c-493,-26 -1344,-143 -2213,-595 -490,255 -1027,432 -1597,527 -64,11 -124,-32 -134,-96 -11,-63 32,-124 96,-134 566,-95 1098,-274 1580,-532 34,-18 76,-18 110,0 917,491 1821,588 2278,601 64,2 114,54 114,117l0 2414c0,1608 -1674,2648 -2393,3020 -17,9 -36,13 -54,13z"></path> <path class="fil0" d="M4000 2071c-64,0 -117,-52 -117,-116l0 -903c0,-64 53,-117 117,-117 65,0 117,53 117,117l0 903c0,64 -52,116 -117,116z"></path> <path class="fil0" d="M4000 7114c-64,0 -117,-52 -117,-117l0 -861c0,-64 53,-117 117,-117 65,0 117,53 117,117l0 861c0,65 -52,117 -117,117z"></path> </g> </g> </svg> 