<?xml version="1.0" encoding="UTF-8"?> <!-- Creator: CorelDRAW X7 --> <svg xmlns="http://www.w3.org/2000/svg" xmlns:xlink="http://www.w3.org/1999/xlink" xml:space="preserve" width="80px" height="80px" style="shape-rendering:geometricPrecision; text-rendering:geometricPrecision; image-rendering:optimizeQuality; fill-rule:evenodd; clip-rule:evenodd" viewBox="0 0 8000 8000"> <defs> <style type="text/css"> <![CDATA[ .fil0 {fill:gray;fill-rule:nonzero} ]]> </style> </defs> <g id="Слой_x0020_1"> <metadata id="CorelCorpID_0Corel-Layer"></metadata> <g id="thermometer_x0028_1_x0029_.eps"> <path class="fil0" d="M4000 7096c-356,0 -646,-290 -646,-646 0,-356 290,-645 646,-645 356,0 646,289 646,645 0,358 -290,646 -646,646zm129 -1537l0 -2463 -258 0 0 2463c-436,63 -775,439 -775,893 0,498 405,904 904,904 498,0 904,-405 904,-904 0,-455 -339,-830 -775,-893z"></path> <path class="fil0" d="M4000 7742c-712,0 -1290,-580 -1290,-1290 0,-961 904,-1233 904,-1233l0 -4573c0,-215 173,-388 388,-388 214,0 387,173 387,388l0 4573c0,0 904,272 904,1233 -3,712 -581,1290 -1293,1290zm646 -2696l0 -4400c0,-356 -290,-646 -646,-646 -356,0 -646,290 -646,646l0 4400c-551,252 -904,795 -904,1406 0,854 695,1548 1548,1548 854,0 1548,-694 1548,-1548 2,-613 -349,-1154 -900,-1406z"></path> <polygon class="fil0" points="4904,646 5550,646 5550,387 4904,387 "></polygon> <polygon class="fil0" points="4904,1162 5291,1162 5291,904 4904,904 "></polygon> <polygon class="fil0" points="4904,1677 5550,1677 5550,1419 4904,1419 "></polygon> <polygon class="fil0" points="4904,2194 5291,2194 5291,1935 4904,1935 "></polygon> <polygon class="fil0" points="4904,2710 5550,2710 5550,2452 4904,2452 "></polygon> <polygon class="fil0" points="4904,3227 5291,3227 5291,2968 4904,2968 "></polygon> <polygon class="fil0" points="4904,3742 5550,3742 5550,3483 4904,3483 "></polygon> <polygon class="fil0" points="4904,4258 5291,4258 5291,4000 4904,4000 "></polygon> <polygon class="fil0" points="4904,4775 5550,4775 5550,4517 4904,4517 "></polygon> </g> </g> </svg> 