<?xml version="1.0" encoding="UTF-8"?> <!-- Creator: CorelDRAW X7 --> <svg xmlns="http://www.w3.org/2000/svg" xmlns:xlink="http://www.w3.org/1999/xlink" xml:space="preserve" width="455px" height="57px" style="shape-rendering:geometricPrecision; text-rendering:geometricPrecision; image-rendering:optimizeQuality; fill-rule:evenodd; clip-rule:evenodd" viewBox="0 0 45500 5700"> <defs> <style type="text/css"> <![CDATA[ .fil0 {fill:white} .fil1 {fill:white;fill-rule:nonzero} ]]> </style> </defs> <g id="Слой_x0020_1"> <metadata id="CorelCorpID_0Corel-Layer"></metadata> <g id="_932590336"> <rect class="fil0" x="32100" width="300" height="5700"></rect> <path class="fil0" d="M26814 923l963 3017 1012 -3017 1199 0 0 3862 -782 0 0 -2903 -1013 2903 -846 0 -954 -2903 0 2903 -782 0 0 -3862 1203 0zm-3677 625c-169,0 -320,24 -445,75 -127,47 -228,119 -308,214 -84,104 -148,242 -191,409 -42,167 -63,368 -63,599 0,299 34,548 106,742 71,194 180,339 331,432 149,93 340,141 570,141 231,0 416,-45 565,-138 146,-93 257,-236 326,-430 72,-191 106,-437 106,-737 0,-299 -34,-546 -106,-742 -72,-194 -180,-337 -326,-430 -149,-92 -334,-140 -565,-137l0 0 0 2zm-5 -655c440,0 798,75 1082,221 281,145 490,368 623,668 135,299 201,673 201,1126 0,305 -37,573 -114,806 -74,234 -188,430 -339,591 -159,167 -355,295 -586,377 -233,85 -501,127 -809,127 -437,0 -803,-74 -1095,-225 -291,-149 -509,-366 -652,-655 -146,-289 -217,-639 -217,-1055 0,-448 66,-817 201,-1111 135,-292 342,-512 623,-655 281,-143 642,-215 1082,-215l0 0 0 0zm-2283 3203l0 689 -1344 0c-424,0 -766,-66 -1031,-201 -265,-135 -459,-345 -581,-629 -124,-283 -183,-646 -183,-1092 0,-315 35,-594 106,-832 69,-239 175,-438 319,-597 151,-169 344,-299 578,-384 233,-85 511,-127 829,-127l1310 0 0 689 -1212 0c-177,0 -326,21 -453,61 -127,40 -228,101 -305,177 -175,181 -260,494 -260,939 0,241 19,445 59,612 40,170 95,303 175,401 156,196 429,294 816,294l1183 0 -6 0zm-4541 689l0 -3862 822 0 0 3862 -822 0zm-406 -3862l-1691 3862 -822 0 -1628 -3862 928 0 1135 2908 1153 -2908 928 0 -3 0zm-5368 3862l0 -3862 822 0 0 3862 -822 0zm-3128 -3862l821 0 0 2166c0,212 11,381 32,514 21,130 53,223 96,273 61,72 167,127 318,164 151,37 347,56 591,56l787 0 0 689 -787 0c-369,0 -676,-32 -925,-95 -249,-64 -440,-157 -570,-281 -244,-239 -366,-679 -366,-1320l0 -2166 3 0z"></path> <path class="fil0" d="M3771 2381l0 1394 -1334 0c-281,0 -511,-273 -511,-554l0 -1294 1352 0c281,0 495,173 495,454l-2 0z"></path> <path class="fil0" d="M1483 3425c0,419 329,878 748,878l1980 0 0 -2126c0,-419 -310,-687 -729,-687l-1996 0 0 1938 -3 -3zm-1495 -2160c0,-703 570,-1273 1272,-1273l3171 0c703,0 1273,570 1273,1273l0 3170c0,703 -570,1273 -1273,1273l-3171 0c-702,0 -1272,-570 -1272,-1273l0 -3170z"></path> <path class="fil0" d="M3771 2381l0 1394 -1334 0c-281,0 -511,-273 -511,-554l0 -1294 1352 0c281,0 495,173 495,454l-2 0z"></path> <path class="fil0" d="M1483 3425c0,419 329,878 748,878l1980 0 0 -2126c0,-419 -310,-687 -729,-687l-1996 0 0 1938 -3 -3zm-1495 -2160c0,-703 570,-1273 1272,-1273l3171 0c703,0 1273,570 1273,1273l0 3170c0,703 -570,1273 -1273,1273l-3171 0c-702,0 -1272,-570 -1272,-1273l0 -3170z"></path> <path class="fil1" d="M34440 2350l0 -333 851 0c137,0 229,-14 277,-45 62,-36 92,-95 92,-171 0,-92 -39,-159 -120,-199 -39,-22 -106,-33 -202,-33l-344 0c-216,0 -372,-42 -468,-123 -117,-104 -176,-241 -176,-412 0,-235 132,-445 325,-512 81,-31 179,-40 400,-40l924 0 0 334 -834 0c-87,0 -140,0 -165,2 -23,3 -51,6 -84,14 -84,20 -126,84 -126,191 0,89 36,151 106,182 56,25 92,31 235,31l300 0c280,0 420,39 532,154 81,81 140,252 140,411 0,199 -93,384 -238,473 -90,56 -216,76 -487,76l-938 0z"></path> <polygon id="1" class="fil1" points="37248,482 37713,1941 38203,482 38782,482 38782,2350 38404,2350 38404,947 37914,2350 37506,2350 37044,947 37044,2350 36666,2350 36666,482 "></polygon> <path id="2" class="fil1" d="M39264 2350l773 -1868 456 0 773 1868 -465 0 -179 -434 -711 0 -179 434 -468 0zm1002 -1420l-266 653 532 0 -266 -653z"></path> <path id="3" class="fil1" d="M42145 1642l0 708 -397 0 0 -1868 912 0c283,0 488,51 614,154 103,84 154,208 154,367 0,283 -118,465 -356,546 224,59 339,227 339,518 0,81 3,137 8,163 6,25 17,67 37,120l-446 0c-25,-78 -39,-188 -39,-266 -19,-171 -64,-286 -137,-347 -70,-65 -193,-95 -370,-95l-319 0zm0 -334l557 0c210,0 286,-81 286,-257 0,-81 -20,-137 -59,-174 -45,-42 -120,-61 -227,-61l-557 0 0 492z"></path> <polygon id="4" class="fil1" points="44430,816 43834,816 43834,482 45444,482 45444,816 44828,816 44828,2350 44430,2350 "></polygon> <polygon class="fil1" points="35960,3421 35960,5289 35562,5289 35562,4519 34843,4519 34843,5289 34445,5289 34445,3421 34843,3421 34843,4186 35562,4186 35562,3421 "></polygon> <path id="1" class="fil1" d="M37441 3407c639,0 921,317 921,975 0,294 -72,520 -218,674 -154,163 -378,244 -675,244 -635,0 -949,-333 -949,-935 0,-650 283,-958 921,-958zm3 317c-165,0 -288,47 -364,140 -81,100 -123,263 -123,487 0,437 151,635 487,635 333,0 482,-196 482,-630 0,-436 -149,-632 -482,-632z"></path> <polygon id="2" class="fil1" points="39502,3421 39967,4880 40457,3421 41036,3421 41036,5289 40658,5289 40658,3886 40168,5289 39760,5289 39298,3886 39298,5289 38920,5289 38920,3421 "></polygon> <path id="3" class="fil1" d="M43097 3421l0 333 -518 0c-215,0 -355,34 -423,98 -53,54 -89,166 -109,342l1050 0 0 333 -1050 0c14,160 62,272 140,336 81,62 216,93 409,93l501 0 0 333 -518 0c-316,0 -551,-62 -705,-182 -185,-149 -278,-401 -278,-762 0,-313 82,-549 241,-708 143,-143 339,-216 588,-216l672 0z"></path> </g> </g> </svg> 