<?xml version="1.0" encoding="UTF-8"?> <!-- Creator: CorelDRAW X7 --> <svg xmlns="http://www.w3.org/2000/svg" xmlns:xlink="http://www.w3.org/1999/xlink" xml:space="preserve" width="400px" height="98px" style="shape-rendering:geometricPrecision; text-rendering:geometricPrecision; image-rendering:optimizeQuality; fill-rule:evenodd; clip-rule:evenodd" viewBox="0 0 400 98"> <defs> <style type="text/css"> <![CDATA[ .fil0 {fill:white;fill-rule:nonzero} ]]> </style> </defs> <g id="Слой_x0020_1"> <metadata id="CorelCorpID_0Corel-Layer"></metadata> <g id="livicom.eps"> <path class="fil0" d="M120 25l10 0 0 27c0,3 0,5 0,6 1,2 1,3 1,4 1,1 3,1 4,2 2,0 5,0 8,0l10 0 0 9 -10 0c-5,0 -9,0 -12,-1 -3,-1 -5,-2 -7,-4 -3,-3 -4,-8 -4,-16l0 -27zm39 48l0 -48 10 0 0 48 -10 0zm66 -48l0 0 -21 48 -10 0 -20 -48 11 0 14 36 15 -36 11 0zm5 48l0 -48 10 0 0 48 -10 0zm57 -9l0 9 -17 0c-5,0 -10,-1 -13,-2 -3,-2 -6,-5 -7,-8 -2,-4 -2,-8 -2,-14 0,-4 0,-7 1,-10 1,-3 2,-6 4,-8 2,-2 4,-3 7,-4 3,-1 6,-2 10,-2l17 0 0 9 -15 0c-3,0 -5,0 -6,0 -2,1 -3,2 -4,3 -2,2 -3,6 -3,11 0,3 0,6 1,8 0,2 1,4 2,5 2,2 5,3 10,3l15 0zm28 -39l0 0c5,0 10,1 13,2 4,2 6,5 8,9 2,3 3,8 3,14 0,3 -1,7 -2,10 -1,3 -2,5 -4,7 -2,2 -4,4 -7,5 -3,1 -7,1 -10,1 -6,0 -10,-1 -14,-2 -4,-2 -6,-5 -8,-9 -2,-3 -3,-8 -3,-13 0,-5 1,-10 3,-14 1,-3 4,-6 7,-8 4,-1 8,-2 14,-2zm0 8l0 0c-2,0 -4,0 -6,1 -1,0 -2,1 -3,2 -1,2 -2,3 -3,5 0,3 -1,5 -1,8 0,4 1,7 2,9 1,3 2,4 4,6 2,1 4,1 7,1 3,0 5,0 7,-1 2,-2 3,-3 4,-6 1,-2 1,-5 1,-9 0,-4 0,-7 -1,-9 -1,-3 -2,-4 -4,-5 -2,-2 -4,-2 -7,-2zm46 -8l0 0 12 38 12 -38 15 0 0 48 -10 0 0 -36 -12 36 -11 0 -12 -36 0 36 -9 0 0 -48 15 0z"></path> <path class="fil0" d="M0 22c0,-12 10,-22 22,-22l54 0c12,0 22,10 22,22l0 54c0,12 -10,22 -22,22l-54 0c-12,0 -22,-10 -22,-22l0 -54zm26 37l0 0c0,7 5,15 12,15l34 0 0 -37c0,-7 -5,-11 -12,-11l-34 0 0 33z"></path> <path class="fil0" d="M65 41l0 24 -23 0c-5,0 -9,-5 -9,-10l0 -22 23 0c5,0 9,3 9,8z"></path> </g> </g> </svg> 