<?xml version="1.0" encoding="UTF-8"?>
<!DOCTYPE svg PUBLIC "-//W3C//DTD SVG 1.1//EN" "http://www.w3.org/Graphics/SVG/1.1/DTD/svg11.dtd">
<!-- Creator: CorelDRAW X7 -->
<svg xmlns="http://www.w3.org/2000/svg" xml:space="preserve" width="600px" height="147px" version="1.1" style="shape-rendering:geometricPrecision; text-rendering:geometricPrecision; image-rendering:optimizeQuality; fill-rule:evenodd; clip-rule:evenodd"
viewBox="0 0 600 147"
 xmlns:xlink="http://www.w3.org/1999/xlink">
 <defs>
  <style type="text/css">
   <![CDATA[
    .fil0 {fill:white;fill-rule:nonzero}
   ]]>
  </style>
 </defs>
 <g id="Слой_x0020_1">
  <metadata id="CorelCorpID_0Corel-Layer"/>
  <g id="livicom.eps">
   <path class="fil0" d="M180 38l15 0 0 40c0,4 0,7 0,9 1,3 1,5 2,6 1,1 3,2 6,3 3,0 7,1 11,1l15 0 0 13 -15 0c-7,0 -12,-1 -17,-2 -5,-1 -8,-3 -11,-5 -4,-5 -6,-13 -6,-25l0 -40zm58 72l0 -72 15 0 0 72 -15 0zm100 -72l0 0 -32 72 -15 0 -30 -72 17 0 21 54 21 -54 18 0zm7 72l0 -72 16 0 0 72 -16 0zm85 -13l0 13 -25 0c-8,0 -14,-2 -19,-4 -5,-3 -9,-7 -11,-12 -3,-5 -4,-12 -4,-20 0,-6 1,-11 2,-16 2,-4 4,-8 6,-11 3,-3 7,-5 11,-7 4,-2 10,-2 15,-2l25 0 0 12 -23 0c-3,0 -6,1 -8,2 -2,0 -4,1 -6,3 -3,3 -5,9 -5,17 0,5 1,9 1,12 1,3 2,5 4,7 3,4 8,6 15,6l22 0zm42 -60l0 0c9,0 15,1 20,4 6,3 10,7 12,13 3,5 4,12 4,21 0,5 -1,10 -2,15 -2,4 -4,8 -7,11 -3,3 -6,5 -11,7 -4,1 -9,2 -15,2 -8,0 -15,-1 -20,-4 -5,-3 -9,-7 -12,-12 -3,-6 -4,-12 -4,-20 0,-8 1,-15 4,-21 2,-5 6,-9 11,-12 5,-3 12,-4 20,-4zm0 12l0 0c-3,0 -6,1 -8,2 -2,0 -4,2 -6,4 -1,2 -2,4 -3,7 -1,3 -1,7 -1,11 0,6 0,11 2,14 1,4 3,7 6,8 3,2 6,3 10,3 5,0 8,-1 11,-3 3,-1 5,-4 6,-8 1,-3 2,-8 2,-13 0,-6 -1,-11 -2,-14 -1,-4 -3,-6 -6,-8 -3,-2 -6,-3 -11,-3zm69 -11l0 0 18 56 19 -56 22 0 0 72 -15 0 0 -55 -18 55 -16 0 -18 -55 0 55 -15 0 0 -72 23 0z"/>
   <path class="fil0" d="M0 33c0,-18 15,-33 33,-33l81 0c18,0 33,15 33,33l0 81c0,18 -15,33 -33,33l-81 0c-18,0 -33,-15 -33,-33l0 -81zm38 55l0 0c0,11 9,23 19,23l51 0 0 -55c0,-11 -8,-17 -18,-17l-52 0 0 49z"/>
   <path class="fil0" d="M97 61l0 36 -34 0c-7,0 -13,-7 -13,-14l0 -33 34 0c7,0 13,4 13,11z"/>
  </g>
 </g>
</svg>
