<?xml version="1.0" encoding="UTF-8"?>
<!DOCTYPE svg PUBLIC "-//W3C//DTD SVG 1.1//EN" "http://www.w3.org/Graphics/SVG/1.1/DTD/svg11.dtd">
<!-- Creator: CorelDRAW X7 -->
<svg xmlns="http://www.w3.org/2000/svg" xml:space="preserve" width="600px" height="161px" version="1.1" style="shape-rendering:geometricPrecision; text-rendering:geometricPrecision; image-rendering:optimizeQuality; fill-rule:evenodd; clip-rule:evenodd"
viewBox="0 0 600 161"
 xmlns:xlink="http://www.w3.org/1999/xlink">
 <defs>
  <style type="text/css">
   <![CDATA[
    .fil0 {fill:white}
    .fil1 {fill:white;fill-rule:nonzero}
   ]]>
  </style>
 </defs>
 <g id="Слой_x0020_1">
  <metadata id="CorelCorpID_0Corel-Layer"/>
  <g id="_611787120">
   <path class="fil0" d="M42 97c0,11 9,24 21,24l56 0 0 -59c0,-12 -9,-20 -21,-20l-56 0 0 55 0 0zm-42 -61c0,-20 16,-36 36,-36l89 0c20,0 36,16 36,36l0 89c0,20 -16,36 -36,36l-89 0c-20,0 -36,-16 -36,-36l0 -89z"/>
   <path class="fil0" d="M106 67l0 40 -37 0c-8,0 -14,-8 -14,-16l0 -36 38 0c8,0 14,4 14,12l-1 0z"/>
   <g>
    <path class="fil0" d="M545 22l16 52 18 -52 21 0 0 67 -14 0 0 -51 -17 51 -15 0 -17 -51 0 51 -13 0 0 -67 21 0zm-64 10c-3,0 -6,1 -8,2 -2,1 -4,2 -6,4 -1,1 -2,4 -3,7 -1,3 -1,6 -1,10 0,5 1,10 2,13 1,3 3,6 6,8 2,1 6,2 10,2 4,0 7,-1 9,-2 3,-2 5,-5 6,-8 1,-3 2,-8 2,-13 0,-5 -1,-9 -2,-13 -1,-3 -3,-6 -6,-7 -2,-2 -5,-3 -9,-3l0 0 0 0zm-1 -11c8,0 14,1 19,4 5,2 9,6 11,12 3,5 4,11 4,19 0,6 -1,10 -2,14 -2,4 -4,8 -6,11 -3,2 -6,5 -10,6 -4,2 -9,2 -15,2 -7,0 -14,-1 -19,-4 -5,-2 -8,-6 -11,-11 -3,-5 -4,-11 -4,-18 0,-8 1,-15 4,-20 2,-5 6,-9 11,-11 5,-3 11,-4 18,-4l0 0 0 0zm-39 56l0 12 -24 0c-7,0 -13,-1 -18,-4 -4,-2 -8,-6 -10,-11 -2,-4 -3,-11 -3,-19 0,-5 1,-10 2,-14 1,-4 3,-8 5,-11 3,-2 6,-5 10,-6 4,-2 9,-2 15,-2l23 0 0 12 -21 0c-4,0 -6,0 -8,1 -3,0 -4,1 -6,3 -3,3 -4,8 -4,16 0,4 0,8 1,11 1,3 2,5 3,7 3,3 7,5 14,5l21 0 0 0zm-80 12l0 -67 15 0 0 67 -15 0zm-7 -67l-29 67 -14 0 -29 -67 16 0 20 50 20 -50 16 0 0 0zm-93 67l0 -67 14 0 0 67 -14 0zm-55 -67l15 0 0 37c0,4 0,7 0,9 1,3 1,4 2,5 1,1 3,2 5,3 3,1 6,1 11,1l13 0 0 12 -13 0c-7,0 -12,-1 -16,-2 -5,-1 -8,-2 -10,-5 -5,-4 -7,-11 -7,-23l0 -37 0 0z"/>
    <g>
     <path class="fil1" d="M227 130c0,2 -1,3 -2,4 -1,1 -3,2 -6,2l-13 0 0 -24 13 0c3,0 5,1 6,2 1,1 2,3 2,5 0,2 -2,4 -4,5 3,1 4,3 4,6zm-6 -11l0 0c0,-1 0,-1 0,-2 -1,0 -2,0 -3,0l-7 0 0 5 7 0c1,0 2,0 3,-1 0,0 0,-1 0,-2zm0 10l0 0c0,-2 -1,-3 -3,-3l-7 0 0 6 7 0c2,0 3,-1 3,-3z"/>
     <path class="fil1" d="M260 136l-6 0 -2 -6 -10 0 -2 6 -5 0 9 -24 6 0 10 24zm-9 -10l0 0 -4 -9 -4 9 8 0z"/>
     <path class="fil1" d="M280 136c-5,0 -7,-1 -9,-3 -1,-1 -2,-4 -2,-7l0 -14 5 0 0 14c0,2 0,4 1,5 1,0 2,1 5,1l0 -20 5 0 0 20 5 0 0 -20 5 0 0 24 -15 0z"/>
     <path class="fil1" d="M340 126c0,3 0,6 -2,8 -1,1 -4,2 -8,2l-7 0 0 -4 7 0c2,0 3,-1 4,-1 1,0 1,-1 1,-2l-5 0c-5,0 -8,-3 -8,-8l0 -9 5 0 0 9c0,3 1,4 4,4l4 0 0 -13 5 0 0 14z"/>
     <polygon class="fil1" points="379,136 374,136 374,118 368,136 363,136 357,118 357,136 352,136 352,112 359,112 365,131 371,112 379,112 "/>
     <polygon class="fil1" points="409,136 404,136 404,126 395,126 395,136 390,136 390,112 395,112 395,122 404,122 404,112 409,112 "/>
     <path class="fil1" d="M442 128c0,2 -1,4 -2,5 -1,2 -4,3 -7,3l-12 0 0 -24 5 0 0 9 8 0c3,0 5,0 6,2 1,1 2,3 2,5zm-6 0l0 0c0,-1 0,-2 0,-2 -1,-1 -2,-1 -3,-1l-7 0 0 7 7 0c2,0 3,-1 3,-4zm13 8l0 0 -5 0 0 -24 5 0 0 24z"/>
     <path class="fil1" d="M481 136l-5 0 0 -17 -9 17 -6 0 0 -24 4 0 0 18 10 -18 6 0 0 24zm-4 -29l0 0c0,2 -1,3 -2,4 -1,1 -2,1 -4,1 -4,0 -6,-2 -6,-5l3 0c0,2 1,2 3,2 1,0 2,0 2,-2l4 0z"/>
     <path class="fil1" d="M530 140l-4 0 0 -3c0,-1 -1,-1 -1,-1l-13 0c0,0 -1,0 -1,1l0 3 -4 0 0 -6c0,-1 1,-2 2,-2 1,-3 2,-5 2,-9l0 -11 17 0 0 20c1,0 2,1 2,2l0 6zm-7 -8l0 0 0 -15 -7 0 0 6c0,2 0,4 -1,5 0,2 0,3 -1,4l9 0z"/>
     <path class="fil1" d="M562 124c0,4 -1,7 -2,9 -2,2 -5,3 -9,3 -8,0 -12,-4 -12,-12 0,-8 4,-12 12,-12 8,0 11,4 11,12zm-5 0l0 0c0,-5 -2,-8 -6,-8 -2,0 -4,1 -5,2 -1,1 -1,3 -1,6 0,5 2,8 6,8 4,0 6,-2 6,-8z"/>
     <polygon class="fil1" points="599,136 594,136 594,118 588,136 583,136 577,118 577,136 573,136 573,112 580,112 586,131 592,112 599,112 "/>
    </g>
   </g>
  </g>
 </g>
</svg>
