<?xml version="1.0" encoding="UTF-8"?>
<!DOCTYPE svg PUBLIC "-//W3C//DTD SVG 1.1//EN" "http://www.w3.org/Graphics/SVG/1.1/DTD/svg11.dtd">
<!-- Creator: CorelDRAW X7 -->
<svg xmlns="http://www.w3.org/2000/svg" xml:space="preserve" width="548px" height="147px" version="1.1" style="shape-rendering:geometricPrecision; text-rendering:geometricPrecision; image-rendering:optimizeQuality; fill-rule:evenodd; clip-rule:evenodd"
viewBox="0 0 548 147"
 xmlns:xlink="http://www.w3.org/1999/xlink">
 <defs>
  <style type="text/css">
   <![CDATA[
    .fil0 {fill:#169889}
    .fil1 {fill:#169889;fill-rule:nonzero}
   ]]>
  </style>
 </defs>
 <g id="Слой_x0020_1">
  <metadata id="CorelCorpID_0Corel-Layer"/>
  <g id="_734726640">
   <path class="fil0" d="M38 88c0,11 9,23 20,23l51 0 0 -55c0,-11 -8,-17 -19,-17l-52 0 0 49 0 0zm-38 -55c0,-18 15,-33 33,-33l81 0c18,0 33,15 33,33l0 81c0,18 -15,33 -33,33l-81 0c-18,0 -33,-15 -33,-33l0 -81z"/>
   <path class="fil0" d="M97 61l0 36 -34 0c-7,0 -13,-7 -13,-14l0 -33 35 0c7,0 12,4 12,11l0 0z"/>
   <g>
    <path class="fil0" d="M498 20l15 48 16 -48 19 0 0 61 -12 0 0 -46 -17 46 -13 0 -15 -46 0 46 -13 0 0 -61 20 0zm-59 10c-3,0 -5,0 -7,1 -2,1 -4,2 -5,3 -1,2 -2,4 -3,7 -1,2 -1,6 -1,9 0,5 0,9 2,12 1,3 2,6 5,7 2,1 5,2 9,2 4,0 7,0 9,-2 2,-1 4,-4 5,-7 1,-3 2,-7 2,-12 0,-4 -1,-8 -2,-11 -1,-3 -3,-6 -5,-7 -2,-2 -5,-2 -9,-2l0 0 0 0zm0 -11c7,0 13,1 17,4 5,2 8,6 10,10 2,5 3,11 3,18 0,5 0,9 -2,13 -1,4 -3,7 -5,10 -3,2 -6,4 -9,6 -4,1 -8,2 -13,2 -7,0 -13,-2 -18,-4 -4,-2 -8,-6 -10,-10 -2,-5 -3,-11 -3,-17 0,-7 1,-13 3,-18 2,-5 5,-8 10,-10 4,-3 10,-4 17,-4l0 0 0 0zm-36 51l0 11 -22 0c-7,0 -12,-1 -16,-3 -5,-2 -8,-6 -10,-10 -2,-5 -2,-10 -2,-17 0,-5 0,-10 1,-14 1,-3 3,-7 5,-9 3,-3 6,-5 9,-6 4,-2 9,-2 14,-2l21 0 0 11 -20 0c-3,0 -5,0 -7,1 -2,0 -4,1 -5,2 -3,3 -4,8 -4,15 0,4 0,7 1,10 1,3 1,5 3,7 2,3 7,4 13,4l19 0 0 0zm-73 11l0 -61 13 0 0 61 -13 0zm-6 -61l-27 61 -13 0 -26 -61 15 0 18 46 18 -46 15 0 0 0zm-86 61l0 -61 13 0 0 61 -13 0zm-50 -61l13 0 0 34c0,4 1,6 1,8 0,2 1,4 1,5 1,1 3,2 6,2 2,1 5,1 9,1l13 0 0 11 -13 0c-6,0 -11,0 -15,-1 -4,-1 -7,-3 -9,-5 -4,-4 -6,-11 -6,-21l0 -34 0 0z"/>
    <g>
     <path class="fil1" d="M207 118c0,2 0,4 -1,4 -2,1 -3,2 -6,2l-12 0 0 -21 12 0c3,0 4,0 6,1 1,1 1,3 1,4 0,2 -1,5 -3,5 2,1 3,3 3,5zm-5 -9l0 0c0,-1 0,-2 0,-2 -1,0 -2,-1 -3,-1l-6 0 0 5 6 0c1,0 2,0 3,0 0,-1 0,-1 0,-2zm0 9l0 0c0,-2 -1,-3 -3,-3l-6 0 0 5 6 0c2,0 3,-1 3,-2z"/>
     <path class="fil1" d="M237 124l-5 0 -2 -5 -9 0 -2 5 -5 0 9 -21 5 0 9 21zm-8 -9l0 0 -4 -9 -3 9 7 0z"/>
     <path class="fil1" d="M256 124c-4,0 -7,-1 -8,-2 -2,-1 -2,-4 -2,-7l0 -12 4 0 0 12c0,2 1,4 1,4 1,1 2,1 5,1l0 -17 4 0 0 17 5 0 0 -17 5 0 0 21 -14 0z"/>
     <path class="fil1" d="M311 115c0,3 -1,6 -2,7 -2,1 -4,2 -7,2l-7 0 0 -4 7 0c1,0 2,0 3,0 1,0 1,-1 1,-2l-5 0c-4,0 -7,-3 -7,-8l0 -7 5 0 0 7c0,3 1,4 3,4l4 0 0 -11 5 0 0 12z"/>
     <polygon class="fil1" points="346,124 341,124 341,108 336,124 331,124 326,108 326,124 322,124 322,103 328,103 334,119 339,103 346,103 "/>
     <polygon class="fil1" points="374,124 369,124 369,115 361,115 361,124 356,124 356,103 361,103 361,111 369,111 369,103 374,103 "/>
     <path class="fil1" d="M403 117c0,2 0,4 -1,5 -1,1 -4,2 -7,2l-11 0 0 -21 5 0 0 7 7 0c3,0 5,1 6,2 1,1 1,3 1,5zm-5 0l0 0c0,-1 0,-2 0,-2 -1,-1 -2,-1 -3,-1l-6 0 0 6 6 0c3,0 3,-1 3,-3zm12 7l0 0 -5 0 0 -21 5 0 0 21z"/>
     <path class="fil1" d="M439 124l-4 0 0 -16 -9 16 -5 0 0 -21 4 0 0 16 9 -16 5 0 0 21zm-4 -26l0 0c0,1 0,2 -1,3 -1,1 -2,1 -4,1 -4,0 -5,-1 -5,-4l3 0c0,1 1,2 2,2 1,0 2,-1 2,-2l3 0z"/>
     <path class="fil1" d="M485 128l-5 0 0 -3c0,-1 0,-1 -1,-1l-11 0c0,0 -1,0 -1,1l0 3 -4 0 0 -6c0,-1 1,-2 2,-2 1,-2 2,-4 2,-7l0 -10 16 0 0 17c1,0 2,1 2,2l0 6zm-7 -8l0 0 0 -14 -7 0 0 7c0,1 0,3 0,4 0,2 -1,3 -1,3l8 0z"/>
     <path class="fil1" d="M514 114c0,3 -1,6 -3,7 -2,2 -4,3 -8,3 -7,0 -10,-4 -10,-11 0,-7 3,-10 10,-10 7,0 11,3 11,11zm-5 -1l0 0c0,-5 -2,-7 -6,-7 -2,0 -3,1 -4,2 -1,1 -1,3 -1,5 0,5 1,8 5,8 4,0 6,-3 6,-8z"/>
     <polygon class="fil1" points="547,124 543,124 543,108 537,124 533,124 527,108 527,124 523,124 523,103 530,103 535,119 541,103 547,103 "/>
    </g>
   </g>
  </g>
 </g>
</svg>
