<?xml version="1.0" encoding="UTF-8"?>
<!DOCTYPE svg PUBLIC "-//W3C//DTD SVG 1.1//EN" "http://www.w3.org/Graphics/SVG/1.1/DTD/svg11.dtd">
<!-- Creator: CorelDRAW X7 -->
<svg xmlns="http://www.w3.org/2000/svg" xml:space="preserve" width="600px" height="75px" version="1.1" style="shape-rendering:geometricPrecision; text-rendering:geometricPrecision; image-rendering:optimizeQuality; fill-rule:evenodd; clip-rule:evenodd"
viewBox="0 0 600 75"
 xmlns:xlink="http://www.w3.org/1999/xlink">
 <defs>
  <style type="text/css">
   <![CDATA[
    .fil1 {fill:white}
    .fil0 {fill:white;fill-rule:nonzero}
   ]]>
  </style>
 </defs>
 <g id="Слой_x0020_1">
  <metadata id="CorelCorpID_0Corel-Layer"/>
  <g id="_764344672">
   <g>
    <g>
     <path class="fil0" d="M465 20c0,5 -1,8 -3,9 -2,2 -4,3 -9,3l-8 0 0 -5 8 0c2,0 4,0 4,0 2,-1 2,-1 2,-3l-6 0c-6,0 -9,-3 -9,-9l0 -9 6 0 0 9c0,3 1,5 4,5l5 0 0 -14 6 0 0 14z"/>
     <polygon class="fil0" points="502,32 497,32 497,12 490,32 484,32 478,12 478,32 472,32 472,6 480,6 487,26 494,6 502,6 "/>
     <polygon class="fil0" points="531,32 525,32 525,21 515,21 515,32 510,32 510,6 515,6 515,16 525,16 525,6 531,6 "/>
     <path class="fil0" d="M562 23c0,3 -1,5 -2,6 -2,2 -5,3 -9,3l-13 0 0 -26 6 0 0 9 9 0c3,0 5,1 7,2 1,2 2,4 2,6zm-7 1l0 0c0,-2 0,-3 0,-3 -1,-1 -2,-1 -4,-1l-7 0 0 7 8 0c3,0 3,-1 3,-3zm15 8l0 0 -6 0 0 -26 6 0 0 26z"/>
     <path class="fil0" d="M600 32l-5 0 0 -19 -11 19 -7 0 0 -26 6 0 0 19 10 -19 7 0 0 26zm-5 -32l0 0c0,2 0,3 -1,4 -2,1 -3,1 -5,1 -5,0 -7,-2 -7,-5l4 0c0,2 1,2 3,2 1,0 2,0 2,-2l4 0z"/>
    </g>
    <g>
     <path class="fil0" d="M471 75l-5 0 0 -4c0,0 0,-1 -1,-1l-14 0c-1,0 -1,1 -1,1l0 4 -5 0 0 -7c0,-1 1,-2 3,-2 1,-3 1,-6 1,-9l0 -13 20 0 0 22c1,0 2,1 2,2l0 7zm-8 -9l0 0 0 -17 -8 0 0 8c0,1 0,3 -1,5 0,2 0,3 -1,4l10 0z"/>
     <path class="fil0" d="M501 58c0,4 -1,7 -3,9 -2,2 -5,4 -9,4 -9,0 -13,-5 -13,-14 0,-9 4,-13 13,-13 8,0 12,5 12,14zm-6 -1l0 0c0,-6 -2,-8 -6,-8 -3,0 -4,0 -5,1 -2,2 -2,4 -2,7 0,6 2,9 7,9 4,0 6,-3 6,-9z"/>
     <polygon class="fil0" points="537,70 532,70 532,51 525,70 519,70 513,51 513,70 508,70 508,44 516,44 522,65 529,44 537,44 "/>
    </g>
   </g>
   <rect class="fil1" x="418" width="3.95379" height="75.124"/>
   <path class="fil1" d="M354 12l12 40 14 -40 15 0 0 51 -10 0 0 -38 -13 38 -11 0 -13 -38 0 38 -10 0 0 -51 16 0zm-49 8c-2,0 -4,1 -6,1 -1,1 -3,2 -4,3 -1,2 -2,3 -2,6 -1,2 -1,4 -1,7 0,4 0,8 1,10 1,3 3,5 5,6 2,1 4,2 7,2 3,0 6,-1 8,-2 1,-1 3,-3 4,-6 1,-2 1,-5 1,-9 0,-4 0,-8 -1,-10 -1,-3 -3,-5 -4,-6 -2,-1 -5,-2 -8,-2l0 0 0 0zm0 -8c6,0 11,1 14,3 4,2 7,4 9,8 1,4 2,9 2,15 0,4 0,8 -1,11 -1,3 -3,6 -5,8 -2,2 -5,4 -8,5 -3,1 -6,1 -10,1 -6,0 -11,-1 -15,-3 -3,-2 -6,-4 -8,-8 -2,-4 -3,-9 -3,-14 0,-6 1,-11 3,-15 1,-4 4,-7 8,-8 3,-2 8,-3 14,-3l0 0 0 0zm-30 42l0 9 -18 0c-5,0 -10,-1 -13,-3 -4,-1 -6,-4 -8,-8 -2,-4 -2,-8 -2,-14 0,-4 0,-8 1,-11 1,-3 2,-6 4,-8 2,-2 5,-4 8,-5 3,-1 7,-2 11,-2l17 0 0 9 -16 0c-2,0 -4,0 -6,1 -2,1 -3,1 -4,2 -2,3 -3,7 -3,13 0,3 0,6 0,8 1,2 2,4 3,5 2,3 5,4 10,4l16 0 0 0zm-60 9l0 -51 11 0 0 51 -11 0zm-5 -51l-23 51 -10 0 -22 -51 12 0 15 38 16 -38 12 0 0 0zm-71 51l0 -51 11 0 0 51 -11 0zm-41 -51l11 0 0 29c0,2 0,5 0,6 0,2 1,3 1,4 1,1 2,2 4,2 2,1 5,1 8,1l11 0 0 9 -11 0c-5,0 -9,0 -12,-1 -3,-1 -6,-2 -7,-4 -4,-3 -5,-9 -5,-17l0 -29 0 0z"/>
   <path class="fil1" d="M50 31l0 19 -18 0c-3,0 -6,-4 -6,-8l0 -17 17 0c4,0 7,3 7,6l0 0z"/>
   <path class="fil1" d="M20 45c0,6 4,12 10,12l26 0 0 -28c0,-6 -4,-9 -10,-9l-26 0 0 25 0 0zm-20 -28c0,-10 8,-17 17,-17l42 0c9,0 16,7 16,17l0 41c0,10 -7,17 -16,17l-42 0c-9,0 -17,-7 -17,-17l0 -41z"/>
   <path class="fil1" d="M50 31l0 19 -18 0c-3,0 -6,-4 -6,-8l0 -17 17 0c4,0 7,3 7,6l0 0z"/>
   <path class="fil1" d="M20 45c0,6 4,12 10,12l26 0 0 -28c0,-6 -4,-9 -10,-9l-26 0 0 25 0 0zm-20 -28c0,-10 8,-17 17,-17l42 0c9,0 16,7 16,17l0 41c0,10 -7,17 -16,17l-42 0c-9,0 -17,-7 -17,-17l0 -41z"/>
  </g>
 </g>
</svg>
