<svg width="541" height="57" viewBox="0 0 541 57" fill="none" xmlns="http://www.w3.org/2000/svg">
<mask id="mask0" mask-type="alpha" maskUnits="userSpaceOnUse" x="0" y="0" width="324" height="57">
<rect width="324" height="57" fill="#C4C4C4"/>
</mask>
<g mask="url(#mask0)">
<path d="M324.12 0.0799866H321.12V57.08H324.12V0.0799866Z" fill="white"/>
<path fill-rule="evenodd" clip-rule="evenodd" d="M268.26 9.31001L277.89 39.48L288.01 9.31001H300V47.93H292.18V18.9L282.05 47.93H273.59L264.05 18.9V47.93H256.23V9.31001H268.26ZM231.49 15.56C229.8 15.56 228.29 15.8 227.04 16.31C225.77 16.78 224.76 17.5 223.96 18.45C223.12 19.49 222.48 20.87 222.05 22.54C221.63 24.21 221.42 26.22 221.42 28.53C221.42 31.52 221.76 34.01 222.48 35.95C223.19 37.89 224.28 39.34 225.79 40.27C227.28 41.2 229.19 41.68 231.49 41.68C233.8 41.68 235.65 41.23 237.14 40.3C238.6 39.37 239.71 37.94 240.4 36C241.12 34.09 241.46 31.63 241.46 28.63C241.46 25.64 241.12 23.17 240.4 21.21C239.68 19.27 238.6 17.84 237.14 16.91C235.65 15.99 233.8 15.51 231.49 15.54V15.56ZM231.44 9.01001C235.84 9.01001 239.42 9.76001 242.26 11.22C245.07 12.67 247.16 14.9 248.49 17.9C249.84 20.89 250.5 24.63 250.5 29.16C250.5 32.21 250.13 34.89 249.36 37.22C248.62 39.56 247.48 41.52 245.97 43.13C244.38 44.8 242.42 46.08 240.11 46.9C237.78 47.75 235.1 48.17 232.02 48.17C227.65 48.17 223.99 47.43 221.07 45.92C218.16 44.43 215.98 42.26 214.55 39.37C213.09 36.48 212.38 32.98 212.38 28.82C212.38 24.34 213.04 20.65 214.39 17.71C215.74 14.79 217.81 12.59 220.62 11.16C223.43 9.73001 227.04 9.01001 231.44 9.01001ZM208.61 41.04V47.93H195.17C190.93 47.93 187.51 47.27 184.86 45.92C182.21 44.57 180.27 42.47 179.05 39.63C177.81 36.8 177.22 33.17 177.22 28.71C177.22 25.56 177.57 22.77 178.28 20.39C178.97 18 180.03 16.01 181.47 14.42C182.98 12.73 184.91 11.43 187.25 10.58C189.58 9.73001 192.36 9.31001 195.54 9.31001H208.64V16.2H196.52C194.75 16.2 193.26 16.41 191.99 16.81C190.72 17.21 189.71 17.82 188.94 18.58C187.19 20.39 186.34 23.52 186.34 27.97C186.34 30.38 186.53 32.42 186.93 34.09C187.33 35.79 187.88 37.12 188.68 38.1C190.24 40.06 192.97 41.04 196.84 41.04H208.67H208.61ZM163.2 47.93V9.31001H171.42V47.93H163.2ZM159.14 9.31001L142.23 47.93H134.01L117.73 9.31001H127.01L138.36 38.39L149.89 9.31001H159.17H159.14ZM105.46 47.93V9.31001H113.68V47.93H105.46ZM74.18 9.31001H82.39V30.97C82.39 33.09 82.5 34.78 82.71 36.11C82.92 37.41 83.24 38.34 83.67 38.84C84.28 39.56 85.34 40.11 86.85 40.48C88.36 40.85 90.32 41.04 92.76 41.04H100.63V47.93H92.76C89.07 47.93 86 47.61 83.51 46.98C81.02 46.34 79.11 45.41 77.81 44.17C75.37 41.78 74.15 37.38 74.15 30.97V9.31001H74.18Z" fill="white"/>
<path fill-rule="evenodd" clip-rule="evenodd" d="M37.83 23.89V37.83H24.49C21.68 37.83 19.38 35.1 19.38 32.29V19.35H32.9C35.71 19.35 37.85 21.08 37.85 23.89H37.83Z" fill="white"/>
<path fill-rule="evenodd" clip-rule="evenodd" d="M14.95 34.33C14.95 38.52 18.24 43.11 22.43 43.11H42.23V21.85C42.23 17.66 39.13 14.98 34.94 14.98H14.98V34.36L14.95 34.33ZM0 12.73C0 5.7 5.7 0 12.72 0H44.43C51.46 0 57.16 5.7 57.16 12.73V44.43C57.16 51.46 51.46 57.16 44.43 57.16H12.72C5.7 57.16 0 51.46 0 44.43V12.73Z" fill="white"/>
<path fill-rule="evenodd" clip-rule="evenodd" d="M37.83 23.89V37.83H24.49C21.68 37.83 19.38 35.1 19.38 32.29V19.35H32.9C35.71 19.35 37.85 21.08 37.85 23.89H37.83Z" fill="white"/>
<path fill-rule="evenodd" clip-rule="evenodd" d="M14.95 34.33C14.95 38.52 18.24 43.11 22.43 43.11H42.23V21.85C42.23 17.66 39.13 14.98 34.94 14.98H14.98V34.36L14.95 34.33ZM0 12.73C0 5.7 5.7 0 12.72 0H44.43C51.46 0 57.16 5.7 57.16 12.73V44.43C57.16 51.46 51.46 57.16 44.43 57.16H12.72C5.7 57.16 0 51.46 0 44.43V12.73Z" fill="white"/>
</g>
<path d="M349.648 23H345.068L352.465 3.09375H356.443L363.881 23H359.301L358.002 19.0352H350.947L349.648 23ZM352.082 15.5625H356.854L354.461 8.33008L352.082 15.5625ZM380.258 23H367.338V3.09375H371.631V19.541H380.258V23ZM387.462 23H382.881L390.278 3.09375H394.256L401.694 23H397.114L395.815 19.0352H388.76L387.462 23ZM389.895 15.5625H394.667L392.274 8.33008L389.895 15.5625ZM412.657 3.09375C414.963 3.09375 416.772 3.60872 418.085 4.63867C419.407 5.65951 420.067 7.14974 420.067 9.10938C420.067 10.5768 419.748 11.7526 419.11 12.6367C418.481 13.5117 417.625 14.1953 416.54 14.6875L420.792 22.7949V23H416.185L412.534 15.7949H409.458V23H405.165V3.09375H412.657ZM412.657 6.56641H409.458V12.3223H412.644C413.683 12.3223 414.462 12.0671 414.981 11.5566C415.501 11.0371 415.761 10.3398 415.761 9.46484C415.761 8.57161 415.505 7.86523 414.995 7.3457C414.494 6.82617 413.714 6.56641 412.657 6.56641ZM430.388 3.09375L435.324 17.2988L440.245 3.09375H445.865V23H441.558V17.8457L441.982 8.39844L436.773 23H433.847L428.652 8.39844L429.075 17.8457V23H424.769V3.09375H430.388ZM363.197 42.457C363.197 44.4896 362.837 46.2396 362.117 47.707C361.397 49.1745 360.395 50.3047 359.109 51.0977C357.833 51.8815 356.361 52.2734 354.693 52.2734C353.016 52.2734 351.531 51.8815 350.236 51.0977C348.951 50.3047 347.944 49.1745 347.215 47.707C346.486 46.2396 346.121 44.4896 346.121 42.457V41.6504C346.121 39.6178 346.481 37.8678 347.201 36.4004C347.93 34.9238 348.938 33.7936 350.223 33.0098C351.508 32.2168 352.989 31.8203 354.666 31.8203C356.334 31.8203 357.811 32.2168 359.096 33.0098C360.381 33.7936 361.383 34.9238 362.104 36.4004C362.833 37.8678 363.197 39.6178 363.197 41.6504V42.457ZM358.863 41.623C358.863 39.5723 358.494 38.0182 357.756 36.9609C357.027 35.8945 355.997 35.3613 354.666 35.3613C353.317 35.3613 352.283 35.8945 351.562 36.9609C350.842 38.0182 350.482 39.5723 350.482 41.623V42.457C350.482 44.4896 350.847 46.0482 351.576 47.1328C352.305 48.2083 353.344 48.7461 354.693 48.7461C356.024 48.7461 357.049 48.2083 357.77 47.1328C358.499 46.0482 358.863 44.4896 358.863 42.457V41.623ZM376.047 52H371.754V35.5664H365.793V32.0938H382.09V35.5664H376.047V52ZM401.885 42.457C401.885 44.4896 401.525 46.2396 400.805 47.707C400.085 49.1745 399.083 50.3047 397.798 51.0977C396.521 51.8815 395.049 52.2734 393.381 52.2734C391.704 52.2734 390.219 51.8815 388.924 51.0977C387.639 50.3047 386.632 49.1745 385.903 47.707C385.174 46.2396 384.809 44.4896 384.809 42.457V41.6504C384.809 39.6178 385.169 37.8678 385.889 36.4004C386.618 34.9238 387.626 33.7936 388.911 33.0098C390.196 32.2168 391.677 31.8203 393.354 31.8203C395.022 31.8203 396.499 32.2168 397.784 33.0098C399.069 33.7936 400.072 34.9238 400.792 36.4004C401.521 37.8678 401.885 39.6178 401.885 41.6504V42.457ZM397.551 41.623C397.551 39.5723 397.182 38.0182 396.444 36.9609C395.715 35.8945 394.685 35.3613 393.354 35.3613C392.005 35.3613 390.971 35.8945 390.251 36.9609C389.531 38.0182 389.171 39.5723 389.171 41.623V42.457C389.171 44.4896 389.535 46.0482 390.264 47.1328C390.993 48.2083 392.033 48.7461 393.381 48.7461C394.712 48.7461 395.738 48.2083 396.458 47.1328C397.187 46.0482 397.551 44.4896 397.551 42.457V41.623ZM412.056 32.0938L416.991 46.2988L421.913 32.0938H427.532V52H423.226V46.8457L423.649 37.3984L418.44 52H415.515L410.319 37.3984L410.743 46.8457V52H406.436V32.0938H412.056ZM435.611 52H431.031L438.427 32.0938H442.406L449.843 52H445.263L443.964 48.0352H436.909L435.611 52ZM438.044 44.5625H442.816L440.423 37.3301L438.044 44.5625ZM463.595 46.75C463.595 46.3034 463.5 45.916 463.308 45.5879C463.117 45.2598 462.748 44.9499 462.201 44.6582C461.663 44.3574 460.865 44.0384 459.808 43.7012C458.605 43.3184 457.498 42.8626 456.486 42.334C455.474 41.7962 454.658 41.1309 454.039 40.3379C453.428 39.5449 453.123 38.5651 453.123 37.3984C453.123 36.2773 453.442 35.3021 454.08 34.4727C454.718 33.6341 455.593 32.9824 456.705 32.5176C457.826 32.0527 459.106 31.8203 460.546 31.8203C462.023 31.8203 463.313 32.0801 464.416 32.5996C465.518 33.1191 466.371 33.8438 466.972 34.7734C467.583 35.694 467.888 36.7604 467.888 37.9727H463.609C463.609 37.1706 463.354 36.5143 462.843 36.0039C462.333 35.4844 461.545 35.2246 460.478 35.2246C459.448 35.2246 458.678 35.4388 458.168 35.8672C457.666 36.2956 457.416 36.8151 457.416 37.4258C457.416 38.0638 457.748 38.5924 458.414 39.0117C459.088 39.431 460.041 39.832 461.271 40.2148C463.44 40.8802 465.086 41.7188 466.207 42.7305C467.328 43.7422 467.888 45.0729 467.888 46.7227C467.888 48.4818 467.232 49.849 465.92 50.8242C464.607 51.7904 462.848 52.2734 460.642 52.2734C459.64 52.2734 458.655 52.1458 457.689 51.8906C456.732 51.6263 455.862 51.2253 455.078 50.6875C454.303 50.1406 453.683 49.4525 453.218 48.623C452.754 47.7936 452.521 46.8092 452.521 45.6699H456.828C456.828 46.8457 457.17 47.6751 457.853 48.1582C458.546 48.6413 459.476 48.8828 460.642 48.8828C461.654 48.8828 462.397 48.6777 462.871 48.2676C463.354 47.8574 463.595 47.3516 463.595 46.75ZM479.234 40.9258L483.24 32.0938H487.916L481.422 44.7949V52H477.06V44.7949L470.553 32.0938H475.242L479.234 40.9258ZM507.301 42.457C507.301 44.4896 506.941 46.2396 506.221 47.707C505.501 49.1745 504.498 50.3047 503.213 51.0977C501.937 51.8815 500.465 52.2734 498.797 52.2734C497.12 52.2734 495.634 51.8815 494.34 51.0977C493.055 50.3047 492.048 49.1745 491.319 47.707C490.589 46.2396 490.225 44.4896 490.225 42.457V41.6504C490.225 39.6178 490.585 37.8678 491.305 36.4004C492.034 34.9238 493.041 33.7936 494.326 33.0098C495.612 32.2168 497.093 31.8203 498.77 31.8203C500.438 31.8203 501.914 32.2168 503.199 33.0098C504.485 33.7936 505.487 34.9238 506.207 36.4004C506.936 37.8678 507.301 39.6178 507.301 41.6504V42.457ZM502.967 41.623C502.967 39.5723 502.598 38.0182 501.86 36.9609C501.13 35.8945 500.1 35.3613 498.77 35.3613C497.421 35.3613 496.386 35.8945 495.666 36.9609C494.946 38.0182 494.586 39.5723 494.586 41.623V42.457C494.586 44.4896 494.951 46.0482 495.68 47.1328C496.409 48.2083 497.448 48.7461 498.797 48.7461C500.128 48.7461 501.153 48.2083 501.873 47.1328C502.602 46.0482 502.967 44.4896 502.967 42.457V41.623ZM528.163 52H523.87L516.145 39.1895V52H511.852V32.0938H516.145L523.883 44.918V32.0938H528.163V52Z" fill="white"/>
</svg>
